<svg viewBox="0 0 16 16" xmlns="http://www.w3.org/2000/svg" fill-rule="evenodd" clip-rule="evenodd"><path d="M8.027 12.95l.053.015.046.03.003.003.015.013.026.023.111.104.202.203.207.232.125.158.11.159.087.148.064.137.064.253.003.048v.043l-.004.072c-.009.097-.031.192-.068.282l-.093.174-.104.125-.096.085-.084.059-.073.042c-.146.076-.307.119-.469.135l-.076.005-.083.002-.172-.01-.28-.063-.224-.104-.205-.165-.108-.138-.075-.147-.066-.268-.006-.086.001-.069.019-.125.041-.133.058-.13.084-.149.104-.152.175-.223.2-.221.188-.187.081-.075.063-.057.003-.003.099-.045h.054zm.087-12.448l.129.003.057.004.35.028.483.068.036.007.468.116.132.038.15.051.183.069.141.059.221.103.123.062.249.146.076.045.341.246.083.073.234.211.201.214.056.061.236.311.035.055.182.304.051.097.103.226.106.263.036.102.114.411.088.556.016.172.014.248.001.036-.005.278-.003.052-.014.109-.078.443-.012.054-.18.556-.167.401-.213.422-.381.658-.197.297-.237.352-.171.232-.335.443-.229.286-.339.409-.237.274-.368.411-.232.252-.685.708-.015.016-.367.357-.203.192-.012.011-.016.015-.02.014-.015.006-.04.014-.096-.004-.008-.003-.052-.033-.007-.006-.007-.006-.027-.025-.075-.071-.006-.005-.672-.661-.208-.214-.532-.566-.127-.138-.641-.742-.179-.22-.565-.729-.056-.074-.429-.626-.116-.186-.308-.524-.09-.162-.269-.563-.043-.11-.154-.431-.054-.183-.043-.178-.037-.193-.029-.217-.012-.132-.005-.247.001-.042.006-.133.054-.539.013-.07.122-.538.003-.01.02-.06.086-.249.026-.062.14-.305.094-.177.134-.219.134-.195.093-.122.109-.131.12-.13.097-.098.257-.224.192-.156.227-.152.161-.103.343-.179.486-.199.024-.01.432-.125.17-.038.233-.046.158-.024.244-.03.164-.015.328-.017h.003l.121-.002h.023l.105.002zm-.277.764l-.146.022-.213.056-.218.093-.137.079c-.331.21-.583.524-.769.865l-.088.174-.092.213-.101.285-.098.358-.087.459c-.029.195-.05.392-.062.59l-.016.377.009.433c.024.338.082.672.158 1.002.096.415.221.824.362 1.226.177.505.381 1.001.601 1.49.271.603.569 1.195.885 1.776l.023.044v-9.543l-.011.001zm1.25.024c.219.046.436.106.647.183.301.11.589.253.855.432.36.242.675.549.919.908.144.212.263.441.356.679.137.352.216.725.248 1.101l.015.296-.006.276c-.016.206-.059.409-.116.607-.047.162-.104.321-.168.477-.08.195-.17.385-.267.571-.215.413-.464.808-.73 1.191-.329.471-.683.923-1.054 1.362-.387.459-.792.902-1.21 1.333l-.054.055c.296-.553.576-1.114.832-1.687.143-.318.278-.64.404-.965.139-.357.266-.719.377-1.086.083-.275.156-.552.217-.833.052-.24.092-.484.117-.728l.023-.321.001-.293-.014-.376c-.03-.503-.107-1.005-.255-1.487l-.108-.308-.097-.229c-.189-.409-.454-.792-.812-1.07l-.12-.088z"/></svg>